<svg xmlns="http://www.w3.org/2000/svg" aria-hidden="true" role="img" class="iconify iconify--logos" width="31.88" height="32" viewBox="0 0 24 24">
  <path fill="#000000" d="M22 12c0-3.86-3.14-7-7-7s-7 3.14-7 7c0 3.54 2.62 6.44 6 6.92V20H8c-.55 0-1 .45-1 1s.45 1 1 1h8c.55 0 1-.45 1-1h-3v-1.08c3.38-.48 6-3.38 6-6.92zM12 18c-2.21 0-4-1.79-4-4s1.79-4 4-4 4 1.79 4 4-1.79 4-4 4zM3 21c-1.1 0-2-.9-2-2s.9-2 2-2h4v-2H3c-1.65 0-3-1.35-3-3s1.35-3 3-3h6v-2H3C1.35 9 0 10.35 0 12s1.35 3 3 3h5v2H3c-1.1 0-2 .9-2 2s.9 2 2 2h4v2H3zm15-4c-1.1 0-2-.9-2-2s.9-2 2-2h3V9h-3c-1.1 0-2-.9-2-2s.9-2 2-2h4V3h-4c-1.1 0-2-.9-2-2s.9-2 2-2h4v2h-3c1.1 0 2 .9 2 2s-.9 2-2 2h-3v2h3c1.1 0 2 .9 2 2s-.9 2-2 2h-4v2h4c1.1 0 2 .9 2 2s-.9 2-2 2h-4v2h3c1.1 0 2 .9 2 2s-.9 2-2 2h-3v-2h4c1.65 0 3-1.35 3-3s-1.35-3-3-3z"/>
</svg>
